<svg width="24" height="25" viewBox="0 0 24 25" fill="none" xmlns="http://www.w3.org/2000/svg">
<path d="M12 2.31738C10.1897 2.31772 8.41345 2.80945 6.86072 3.74015C5.30799 4.67084 4.03702 6.00557 3.1834 7.60197C2.32977 9.19836 1.9255 10.9965 2.01371 12.8047C2.10193 14.6128 2.67932 16.3631 3.68429 17.8688C4.68926 19.3745 6.08412 20.5792 7.72008 21.3543C9.35603 22.1295 11.1717 22.446 12.9734 22.2701C14.7752 22.0942 16.4954 21.4325 17.9505 20.3556C19.4057 19.2787 20.5412 17.827 21.236 16.1554C21.577 15.3354 20.76 14.5114 19.938 14.8454C18.5292 15.4161 16.9649 15.4749 15.5172 15.0118C14.0694 14.5487 12.8298 13.5928 12.0137 12.3104C11.1977 11.028 10.8569 9.50016 11.0506 7.99254C11.2443 6.48491 11.9603 5.09285 13.074 4.05838L13.151 3.97838C13.702 3.34838 13.264 2.32538 12.393 2.32538H12.127L12.059 2.31938L11.999 2.31738H12Z" fill="#354052"/>
</svg>
