<svg width="24" height="25" viewBox="0 0 24 25" fill="none" xmlns="http://www.w3.org/2000/svg">
<path d="M12 19.3252C12.2449 19.3252 12.4813 19.4152 12.6644 19.5779C12.8474 19.7407 12.9643 19.9649 12.993 20.2082L13 20.3252V21.3252C12.9997 21.5801 12.9021 21.8252 12.7272 22.0106C12.5522 22.1959 12.313 22.3074 12.0586 22.3224C11.8042 22.3373 11.5536 22.2545 11.3582 22.0909C11.1627 21.9273 11.0371 21.6953 11.007 21.4422L11 21.3252V20.3252C11 20.06 11.1054 19.8056 11.2929 19.6181C11.4804 19.4306 11.7348 19.3252 12 19.3252Z" fill="#fff"/>
<path d="M18.313 17.2352L18.407 17.3182L19.107 18.0182C19.2864 18.1982 19.3905 18.4396 19.3982 18.6936C19.406 18.9475 19.3168 19.1949 19.1488 19.3855C18.9807 19.576 18.7465 19.6955 18.4935 19.7196C18.2406 19.7437 17.988 19.6706 17.787 19.5152L17.693 19.4322L16.993 18.7322C16.8204 18.5599 16.7168 18.3306 16.7015 18.0872C16.6862 17.8439 16.7603 17.6033 16.91 17.4108C17.0596 17.2183 17.2744 17.0871 17.514 17.0418C17.7536 16.9966 18.0015 17.0405 18.211 17.1652L18.313 17.2352Z" fill="#fff"/>
<path d="M7.00701 17.3182C7.17919 17.4904 7.28262 17.7195 7.2979 17.9625C7.31318 18.2055 7.23926 18.4458 7.09001 18.6382L7.00701 18.7322L6.30701 19.4322C6.12705 19.6115 5.88558 19.7156 5.63163 19.7234C5.37768 19.7312 5.1303 19.642 4.93973 19.4739C4.74917 19.3059 4.62971 19.0716 4.60561 18.8187C4.58152 18.5658 4.6546 18.3132 4.81001 18.1122L4.89301 18.0182L5.59301 17.3182C5.78054 17.1307 6.03485 17.0254 6.30001 17.0254C6.56518 17.0254 6.81948 17.1307 7.00701 17.3182Z" fill="#fff"/>
<path d="M3.99999 11.3252C4.25487 11.3255 4.50002 11.4231 4.68536 11.598C4.8707 11.773 4.98223 12.0121 4.99716 12.2666C5.0121 12.521 4.92932 12.7716 4.76573 12.967C4.60214 13.1625 4.37009 13.2881 4.11699 13.3182L3.99999 13.3252H2.99999C2.74511 13.3249 2.49996 13.2273 2.31462 13.0523C2.12929 12.8774 2.01776 12.6382 2.00282 12.3838C1.98788 12.1294 2.07067 11.8788 2.23426 11.6834C2.39785 11.4879 2.62989 11.3623 2.88299 11.3322L2.99999 11.3252H3.99999Z" fill="#fff"/>
<path d="M21 11.3252C21.2549 11.3255 21.5 11.4231 21.6854 11.598C21.8707 11.773 21.9822 12.0121 21.9972 12.2666C22.0121 12.521 21.9293 12.7716 21.7657 12.967C21.6021 13.1625 21.3701 13.2881 21.117 13.3182L21 13.3252H20C19.7451 13.3249 19.5 13.2273 19.3146 13.0523C19.1293 12.8774 19.0178 12.6382 19.0028 12.3838C18.9879 12.1294 19.0707 11.8788 19.2343 11.6834C19.3978 11.4879 19.6299 11.3623 19.883 11.3322L20 11.3252H21Z" fill="#fff"/>
<path d="M6.213 5.13517L6.307 5.21817L7.007 5.91817C7.18635 6.09813 7.29048 6.3396 7.29823 6.59355C7.30599 6.8475 7.21679 7.09488 7.04876 7.28545C6.88072 7.47601 6.64645 7.59547 6.39353 7.61957C6.14061 7.64366 5.888 7.57058 5.687 7.41517L5.593 7.33217L4.893 6.63217C4.72109 6.45985 4.61794 6.23074 4.60287 5.9878C4.5878 5.74486 4.66186 5.50476 4.81117 5.31252C4.96047 5.12028 5.17476 4.9891 5.41387 4.94356C5.65298 4.89802 5.90049 4.94126 6.11 5.06517L6.213 5.13517Z" fill="#fff"/>
<path d="M19.107 5.2182C19.2792 5.39039 19.3826 5.61949 19.3979 5.86252C19.4132 6.10555 19.3392 6.3458 19.19 6.5382L19.107 6.6322L18.407 7.3322C18.227 7.51155 17.9856 7.61567 17.7316 7.62343C17.4777 7.63118 17.2303 7.54199 17.0397 7.37395C16.8491 7.20592 16.7297 6.97165 16.7056 6.71873C16.6815 6.4658 16.7546 6.21319 16.91 6.0122L16.993 5.9182L17.693 5.2182C17.8805 5.03073 18.1348 4.92542 18.4 4.92542C18.6652 4.92542 18.9195 5.03073 19.107 5.2182Z" fill="#fff"/>
<path d="M12 2.3252C12.2449 2.32523 12.4813 2.41515 12.6644 2.57791C12.8474 2.74067 12.9643 2.96494 12.993 3.2082L13 3.3252V4.3252C12.9997 4.58008 12.9021 4.82523 12.7272 5.01056C12.5522 5.1959 12.313 5.30743 12.0586 5.32237C11.8042 5.3373 11.5536 5.25452 11.3582 5.09093C11.1627 4.92734 11.0371 4.69529 11.007 4.4422L11 4.3252V3.3252C11 3.05998 11.1054 2.80562 11.2929 2.61809C11.4804 2.43055 11.7348 2.3252 12 2.3252Z" fill="#fff"/>
<path d="M12 7.3252C12.9797 7.32514 13.9378 7.61288 14.7553 8.15269C15.5729 8.6925 16.2138 9.46059 16.5986 10.3616C16.9833 11.2625 17.0949 12.2567 16.9195 13.2205C16.7441 14.1844 16.2893 15.0754 15.6118 15.7831C14.9343 16.4907 14.0638 16.9837 13.1085 17.2008C12.1532 17.418 11.1552 17.3497 10.2383 17.0045C9.3215 16.6592 8.52629 16.0523 7.95146 15.259C7.37663 14.4656 7.04752 13.5209 7.005 12.5422L7 12.3252L7.005 12.1082C7.06092 10.8209 7.61161 9.60497 8.54222 8.71385C9.47284 7.82274 10.7115 7.32527 12 7.3252Z" fill="#fff"/>
<path d="M12 19.3252C12.2449 19.3252 12.4813 19.4152 12.6644 19.5779C12.8474 19.7407 12.9643 19.9649 12.993 20.2082L13 20.3252V21.3252C12.9997 21.5801 12.9021 21.8252 12.7272 22.0106C12.5522 22.1959 12.313 22.3074 12.0586 22.3224C11.8042 22.3373 11.5536 22.2545 11.3582 22.0909C11.1627 21.9273 11.0371 21.6953 11.007 21.4422L11 21.3252V20.3252C11 20.06 11.1054 19.8056 11.2929 19.6181C11.4804 19.4306 11.7348 19.3252 12 19.3252Z" stroke="black"/>
<path d="M18.313 17.2352L18.407 17.3182L19.107 18.0182C19.2864 18.1982 19.3905 18.4396 19.3982 18.6936C19.406 18.9475 19.3168 19.1949 19.1488 19.3855C18.9807 19.576 18.7465 19.6955 18.4935 19.7196C18.2406 19.7437 17.988 19.6706 17.787 19.5152L17.693 19.4322L16.993 18.7322C16.8204 18.5599 16.7168 18.3306 16.7015 18.0872C16.6862 17.8439 16.7603 17.6033 16.91 17.4108C17.0596 17.2183 17.2744 17.0871 17.514 17.0418C17.7536 16.9966 18.0015 17.0405 18.211 17.1652L18.313 17.2352Z" stroke="black"/>
<path d="M7.00701 17.3182C7.17919 17.4904 7.28262 17.7195 7.2979 17.9625C7.31318 18.2055 7.23926 18.4458 7.09001 18.6382L7.00701 18.7322L6.30701 19.4322C6.12705 19.6115 5.88558 19.7156 5.63163 19.7234C5.37768 19.7312 5.1303 19.642 4.93973 19.4739C4.74917 19.3059 4.62971 19.0716 4.60561 18.8187C4.58152 18.5658 4.6546 18.3132 4.81001 18.1122L4.89301 18.0182L5.59301 17.3182C5.78054 17.1307 6.03485 17.0254 6.30001 17.0254C6.56518 17.0254 6.81948 17.1307 7.00701 17.3182Z" stroke="black"/>
<path d="M3.99999 11.3252C4.25487 11.3255 4.50002 11.4231 4.68536 11.598C4.8707 11.773 4.98223 12.0121 4.99716 12.2666C5.0121 12.521 4.92932 12.7716 4.76573 12.967C4.60214 13.1625 4.37009 13.2881 4.11699 13.3182L3.99999 13.3252H2.99999C2.74511 13.3249 2.49996 13.2273 2.31462 13.0523C2.12929 12.8774 2.01776 12.6382 2.00282 12.3838C1.98788 12.1294 2.07067 11.8788 2.23426 11.6834C2.39785 11.4879 2.62989 11.3623 2.88299 11.3322L2.99999 11.3252H3.99999Z" stroke="black"/>
<path d="M21 11.3252C21.2549 11.3255 21.5 11.4231 21.6854 11.598C21.8707 11.773 21.9822 12.0121 21.9972 12.2666C22.0121 12.521 21.9293 12.7716 21.7657 12.967C21.6021 13.1625 21.3701 13.2881 21.117 13.3182L21 13.3252H20C19.7451 13.3249 19.5 13.2273 19.3146 13.0523C19.1293 12.8774 19.0178 12.6382 19.0028 12.3838C18.9879 12.1294 19.0707 11.8788 19.2343 11.6834C19.3978 11.4879 19.6299 11.3623 19.883 11.3322L20 11.3252H21Z" stroke="black"/>
<path d="M6.213 5.13517L6.307 5.21817L7.007 5.91817C7.18635 6.09813 7.29048 6.3396 7.29823 6.59355C7.30599 6.8475 7.21679 7.09488 7.04876 7.28545C6.88072 7.47601 6.64645 7.59547 6.39353 7.61957C6.14061 7.64366 5.888 7.57058 5.687 7.41517L5.593 7.33217L4.893 6.63217C4.72109 6.45985 4.61794 6.23074 4.60287 5.9878C4.5878 5.74486 4.66186 5.50476 4.81117 5.31252C4.96047 5.12028 5.17476 4.9891 5.41387 4.94356C5.65298 4.89802 5.90049 4.94126 6.11 5.06517L6.213 5.13517Z" stroke="black"/>
<path d="M19.107 5.2182C19.2792 5.39039 19.3826 5.61949 19.3979 5.86252C19.4132 6.10555 19.3392 6.3458 19.19 6.5382L19.107 6.6322L18.407 7.3322C18.227 7.51155 17.9856 7.61567 17.7316 7.62343C17.4777 7.63118 17.2303 7.54199 17.0397 7.37395C16.8491 7.20592 16.7297 6.97165 16.7056 6.71873C16.6815 6.4658 16.7546 6.21319 16.91 6.0122L16.993 5.9182L17.693 5.2182C17.8805 5.03073 18.1348 4.92542 18.4 4.92542C18.6652 4.92542 18.9195 5.03073 19.107 5.2182Z" stroke="black"/>
<path d="M12 2.3252C12.2449 2.32523 12.4813 2.41515 12.6644 2.57791C12.8474 2.74067 12.9643 2.96494 12.993 3.2082L13 3.3252V4.3252C12.9997 4.58008 12.9021 4.82523 12.7272 5.01056C12.5522 5.1959 12.313 5.30743 12.0586 5.32237C11.8042 5.3373 11.5536 5.25452 11.3582 5.09093C11.1627 4.92734 11.0371 4.69529 11.007 4.4422L11 4.3252V3.3252C11 3.05998 11.1054 2.80562 11.2929 2.61809C11.4804 2.43055 11.7348 2.3252 12 2.3252Z" stroke="black"/>
<path d="M12 7.3252C12.9797 7.32514 13.9378 7.61288 14.7553 8.15269C15.5729 8.6925 16.2138 9.46059 16.5986 10.3616C16.9833 11.2625 17.0949 12.2567 16.9195 13.2205C16.7441 14.1844 16.2893 15.0754 15.6118 15.7831C14.9343 16.4907 14.0638 16.9837 13.1085 17.2008C12.1532 17.418 11.1552 17.3497 10.2383 17.0045C9.3215 16.6592 8.52629 16.0523 7.95146 15.259C7.37663 14.4656 7.04752 13.5209 7.005 12.5422L7 12.3252L7.005 12.1082C7.06092 10.8209 7.61161 9.60497 8.54222 8.71385C9.47284 7.82274 10.7115 7.32527 12 7.3252Z" stroke="black"/>
</svg>
